# xmcd
#
# Track frame offsets:
# 182
# 14295
# 28062
# 44645
# 62917
# 78690
# 94212
# 110162
# 124270
# 135422
# 149300
# 163345
# 178217
#
# Disc length: 2579 seconds
#
#
# Revision: 1
# Processed by: cddbd v1.5.2PL0 Copyright (c) Steve Scherf et al.
# Submitted via: FreeRIP 2.945 
#
DISCID=c50a110d
DTITLE=Trio Irakitan - De Coracao A Coracao
DYEAR=1900
DGENRE=Country
TTITLE0=Contigo Aprendi
TTITLE1=A Porta
TTITLE2=Ansiedade
TTITLE3=Jura Me
TTITLE4=Borbulhas De Amor
TTITLE5=El Dia Que Me Quieras
TTITLE6=Perfume De Gardenia
TTITLE7=Sabor De Mim
TTITLE8=Sombras
TTITLE9=Quando Calienta El Sol
TTITLE10=Tu Me Acostumaste
TTITLE11=O Vagabundo
TTITLE12=Sabe Deus
EXTD=
EXTT0=
EXTT1=
EXTT2=
EXTT3=
EXTT4=
EXTT5=
EXTT6=
EXTT7=
EXTT8=
EXTT9=
EXTT10=
EXTT11=
EXTT12=
PLAYORDER=
